<svg width="29" height="29" viewBox="0 0 29 29" fill="none" xmlns="http://www.w3.org/2000/svg">
<g clip-path="url(#clip0_1_148)">
<path d="M26.4467 7.21152C26.3933 7.13994 26.3263 7.07958 26.2496 7.03389C26.1729 6.9882 26.0879 6.95808 25.9995 6.94525C25.9111 6.93241 25.8211 6.93712 25.7346 6.95909C25.648 6.98107 25.5666 7.01988 25.4951 7.07331L14.5317 15.2568C14.4925 15.2862 14.4448 15.3021 14.3958 15.3021C14.3468 15.3021 14.2991 15.2862 14.2599 15.2568L3.51173 7.03706C3.44077 6.98291 3.35984 6.94327 3.27356 6.9204C3.18728 6.89753 3.09734 6.89187 3.00887 6.90376C2.92041 6.91565 2.83515 6.94484 2.75797 6.98968C2.68078 7.03451 2.61319 7.09411 2.55904 7.16507C2.50489 7.23603 2.46524 7.31696 2.44237 7.40324C2.4195 7.48952 2.41384 7.57947 2.42573 7.66793C2.43762 7.7564 2.46681 7.84166 2.51165 7.91884C2.55649 7.99602 2.61608 8.06362 2.68704 8.11777L11.1378 14.5816L2.77994 20.88C2.70793 20.9337 2.64722 21.0011 2.60125 21.0783C2.55528 21.1554 2.52496 21.2409 2.51202 21.3298C2.49908 21.4187 2.50378 21.5092 2.52584 21.5963C2.5479 21.6834 2.5869 21.7653 2.6406 21.8373C2.6943 21.9093 2.76166 21.97 2.83883 22.016C2.916 22.0619 3.00147 22.0922 3.09036 22.1052C3.17924 22.1181 3.26981 22.1134 3.35688 22.0914C3.44395 22.0693 3.52583 22.0303 3.59783 21.9766L12.2593 15.438L13.4329 16.3443C13.7066 16.5537 14.041 16.6684 14.3856 16.6708C14.7302 16.6733 15.0662 16.5634 15.3428 16.3578L16.5753 15.438L25.3388 21.9766C25.4103 22.03 25.4917 22.0688 25.5782 22.0907C25.6648 22.1127 25.7548 22.1174 25.8432 22.1046C25.9315 22.0917 26.0165 22.0616 26.0932 22.016C26.1699 21.9703 26.2369 21.9099 26.2903 21.8384C26.3437 21.7668 26.3825 21.6855 26.4045 21.5989C26.4264 21.5124 26.4311 21.4223 26.4183 21.334C26.4055 21.2456 26.3754 21.1607 26.3297 21.0839C26.284 21.0072 26.2237 20.9402 26.1521 20.8868L17.7104 14.5793L26.3085 8.15628C26.4511 8.04859 26.5455 7.88907 26.5714 7.71225C26.5973 7.53544 26.5524 7.35554 26.4467 7.21152Z" fill="white"/>
<path d="M25.6016 4.30469H3.39844C2.49712 4.30469 1.63271 4.66274 0.995379 5.30007C0.358049 5.9374 0 6.8018 0 7.70312L0 21.2969C0 22.1982 0.358049 23.0626 0.995379 23.6999C1.63271 24.3373 2.49712 24.6953 3.39844 24.6953H25.6016C26.5029 24.6953 27.3673 24.3373 28.0046 23.6999C28.642 23.0626 29 22.1982 29 21.2969V7.70312C29 6.8018 28.642 5.9374 28.0046 5.30007C27.3673 4.66274 26.5029 4.30469 25.6016 4.30469ZM27.6406 21.2969C27.6406 21.8377 27.4258 22.3563 27.0434 22.7387C26.661 23.1211 26.1424 23.3359 25.6016 23.3359H3.39844C2.85764 23.3359 2.339 23.1211 1.9566 22.7387C1.5742 22.3563 1.35938 21.8377 1.35938 21.2969V7.70312C1.35938 7.16233 1.5742 6.64369 1.9566 6.26129C2.339 5.87889 2.85764 5.66406 3.39844 5.66406H25.6016C26.1424 5.66406 26.661 5.87889 27.0434 6.26129C27.4258 6.64369 27.6406 7.16233 27.6406 7.70312V21.2969Z" fill="white"/>
</g>
<defs>
<clipPath id="clip0_1_148">
<rect width="29" height="29" fill="white"/>
</clipPath>
</defs>
</svg>
