<svg width="58" height="58" viewBox="0 0 58 58" fill="none" xmlns="http://www.w3.org/2000/svg">
<g clip-path="url(#clip0_33_382)">
<path d="M55.216 41.586L48.198 34.51C47.038 33.35 45.472 32.654 44.022 32.654C42.456 32.654 41.064 33.292 39.846 34.51L35.786 38.57C35.612 38.454 35.38 38.338 35.206 38.28C35.206 38.28 35.148 38.28 35.148 38.222L35.09 38.164C34.568 37.816 33.988 37.468 33.292 37.178C29.754 34.974 26.448 31.9 23.084 27.782C21.518 25.81 20.416 24.07 19.546 22.156C20.474 21.402 21.17 20.648 21.692 20.068L23.49 18.27C24.882 16.994 25.578 15.544 25.578 14.036C25.578 12.47 24.882 11.02 23.548 9.62801L18.038 4.11801C17.516 3.59601 16.994 3.07401 16.414 2.55201C15.254 1.45001 13.804 0.812012 12.296 0.812012C10.614 0.812012 9.22197 1.39201 7.94597 2.66801L3.71197 6.90201C2.02997 8.46801 1.04397 10.44 0.811975 12.876V12.934C0.695975 15.95 1.15997 18.734 2.43597 22.214C4.46597 27.666 7.53997 32.77 12.122 38.396C18.096 45.124 24.824 50.344 32.306 53.94L32.48 53.998C34.684 54.984 38.86 56.84 43.5 57.13H44.138C47.212 57.13 49.532 56.144 51.446 54.056C52.142 53.244 52.896 52.49 53.534 51.794C54.056 51.388 54.404 50.982 54.752 50.576L55.216 50.112L55.332 49.996C57.768 47.328 57.768 44.08 55.216 41.586ZM53.186 48.024L52.606 48.604L52.548 48.72C52.258 49.068 52.026 49.358 51.736 49.59L51.562 49.764C50.866 50.46 50.054 51.272 49.242 52.2C47.908 53.65 46.4 54.288 44.138 54.288H43.674C39.614 53.998 35.902 52.374 33.698 51.388L33.582 51.33C26.448 47.908 20.01 42.92 14.384 36.54C9.97597 31.204 7.07597 26.332 5.16197 21.228C4.00197 18.038 3.59597 15.718 3.71197 13.108C3.88597 11.426 4.52398 10.092 5.68398 9.04801L9.97597 4.75601C10.672 4.06001 11.368 3.77001 12.238 3.77001C12.992 3.77001 13.688 4.11801 14.326 4.69801L14.384 4.75601C14.906 5.22001 15.428 5.74201 15.95 6.26401L21.46 11.774C22.504 12.818 22.678 13.63 22.678 14.094C22.678 14.558 22.562 15.254 21.46 16.24L19.604 18.096C18.966 18.792 18.212 19.546 17.226 20.358L17.11 20.474L16.994 20.648C16.472 21.344 16.414 21.982 16.704 22.91L16.762 23.142L16.82 23.374C17.806 25.52 19.024 27.492 20.764 29.696C24.36 34.104 27.956 37.41 31.784 39.788L31.958 39.904C32.422 40.136 32.886 40.368 33.292 40.6C33.466 40.774 33.698 40.89 33.872 40.948C34.104 41.064 34.278 41.122 34.394 41.238L34.8 41.528H34.916L35.09 41.586C35.438 41.702 35.67 41.702 35.844 41.702C36.424 41.702 36.946 41.47 37.468 40.948L41.818 36.598C42.514 35.902 43.152 35.612 43.964 35.612C44.834 35.612 45.646 36.134 46.11 36.598L53.186 43.674C54.578 45.066 54.636 46.516 53.186 48.024Z" fill="black"/>
</g>
<defs>
<clipPath id="clip0_33_382">
<rect width="58" height="58" fill="white"/>
</clipPath>
</defs>
</svg>
