<svg width="38" height="63" viewBox="0 0 38 63" fill="none" xmlns="http://www.w3.org/2000/svg">
<path d="M24.6176 45.8225L35.0758 29.0061C35.11 28.9517 35.1386 28.8945 35.1609 28.8352C36.9669 25.8902 37.9204 22.526 37.9204 19.0912C37.9204 8.78711 29.5374 0.404022 19.2334 0.404022C8.92933 0.404022 0.545618 8.78711 0.545618 19.0912C0.545618 22.5267 1.50055 25.8923 3.30787 28.8394C3.32879 28.891 3.35321 28.9413 3.38251 28.9901L13.4654 45.8644C5.63834 46.9707 0.491211 50.1892 0.491211 54.0933C0.491211 58.9308 8.71169 62.7192 19.2055 62.7192C29.6992 62.7192 37.9197 58.9301 37.9197 54.0933C37.9204 50.171 32.5333 46.8807 24.6176 45.8225ZM5.18634 27.897C3.51922 25.2436 2.63823 22.1988 2.63823 19.0912C2.63823 9.94085 10.0824 2.49666 19.2334 2.49666C28.3837 2.49666 35.8278 9.94085 35.8278 19.0912C35.8278 22.2002 34.9468 25.245 33.2804 27.897C33.2455 27.9528 33.2169 28.0107 33.1939 28.0707L22.1449 45.8351C21.9789 46.0897 21.9461 46.1476 21.7431 46.481L18.9529 50.9676L5.27981 28.0854C5.25539 28.0205 5.224 27.957 5.18634 27.897ZM19.2061 60.6265C9.41063 60.6265 2.58452 57.1828 2.58452 54.0933C2.58452 51.2892 7.72537 48.6469 14.6401 47.8287L18.0371 53.5144C18.2247 53.8276 18.5609 54.0208 18.9257 54.0236C18.9285 54.0236 18.932 54.0236 18.9348 54.0236C19.2961 54.0236 19.6323 53.8366 19.8235 53.5297L23.3949 47.7875C30.4198 48.5486 35.8271 51.2578 35.8271 54.0933C35.8278 57.1835 29.0017 60.6265 19.2061 60.6265Z" fill="black"/>
<path d="M26.0009 19.0912C26.0009 15.3447 22.9526 12.2965 19.2062 12.2965C15.4597 12.2965 12.4114 15.3447 12.4114 19.0912C12.4114 22.8378 15.4597 25.886 19.2062 25.886C22.9526 25.886 26.0009 22.8378 26.0009 19.0912ZM14.5041 19.0912C14.5041 16.4985 16.6134 14.3891 19.2062 14.3891C21.7989 14.3891 23.9083 16.4985 23.9083 19.0912C23.9083 21.684 21.7996 23.7934 19.2062 23.7934C16.6127 23.7934 14.5041 21.684 14.5041 19.0912Z" fill="black"/>
</svg>
