<svg width="26" height="26" viewBox="0 0 26 26" fill="none" xmlns="http://www.w3.org/2000/svg">
<path d="M25.1101 18.8239L21.8719 15.5572C21.3367 15.0216 20.6142 14.7003 19.9451 14.7003C19.2226 14.7003 18.5803 14.9949 18.0183 15.5572L16.145 17.4315C16.0647 17.378 15.9577 17.3244 15.8774 17.2976C15.8774 17.2976 15.8506 17.2976 15.8506 17.2709L15.8239 17.2441C15.583 17.0834 15.3154 16.9228 14.9943 16.7889C13.3618 15.7714 11.8364 14.3522 10.2843 12.4511C9.56173 11.5407 9.05326 10.7374 8.65184 9.85376C9.08002 9.50566 9.40116 9.15757 9.64201 8.8898L10.4716 8.05973C11.1139 7.47065 11.435 6.80124 11.435 6.10505C11.435 5.38208 11.1139 4.71267 10.4984 4.07003L7.95604 1.52626C7.71519 1.28527 7.47434 1.04428 7.20673 0.803296C6.6715 0.294542 6.00247 0 5.30667 0C4.53059 0 3.88832 0.267765 3.29957 0.856849L1.34599 2.81153C0.569913 3.5345 0.11497 4.4449 0.00792448 5.56952V5.59629C-0.0455982 6.98867 0.168491 8.27394 0.757241 9.88054C1.69389 12.3975 3.11224 14.7539 5.22639 17.3512C7.98281 20.4573 11.0871 22.8671 14.5393 24.5273L14.6196 24.5541C15.6366 25.0093 17.5634 25.8661 19.7043 26H19.9986C21.417 26 22.4875 25.5448 23.3706 24.5808C23.6917 24.206 24.0396 23.8579 24.334 23.5366C24.5748 23.3491 24.7354 23.1617 24.896 22.9743L25.1101 22.76L25.1636 22.7065C26.2876 21.4748 26.2876 19.9753 25.1101 18.8239ZM24.1734 21.7961L23.9058 22.0639L23.879 22.1174C23.7452 22.2781 23.6382 22.4119 23.5044 22.5191L23.4241 22.5994C23.103 22.9207 22.7283 23.2956 22.3536 23.724C21.7381 24.3934 21.0423 24.688 19.9986 24.688H19.7846C17.9113 24.5541 16.1985 23.8043 15.1816 23.3491L15.1281 23.3223C11.8364 21.7425 8.86593 19.4398 6.27008 16.4943C4.23622 14.0309 2.89815 11.7817 2.01503 9.42533C1.4798 7.95263 1.29247 6.88157 1.34599 5.67662C1.42628 4.9001 1.72065 4.28424 2.25588 3.80227L4.23622 1.8208C4.55735 1.49949 4.87849 1.3656 5.27991 1.3656C5.62781 1.3656 5.94894 1.52626 6.24332 1.79403L6.27008 1.8208C6.51093 2.03502 6.75178 2.276 6.99264 2.51699L9.53496 5.06076C10.0167 5.54274 10.097 5.91761 10.097 6.13182C10.097 6.34604 10.0434 6.66735 9.53496 7.12255L8.6786 7.9794C8.38423 8.30072 8.03633 8.64882 7.58139 9.02369L7.52786 9.07724L7.47434 9.15757C7.23349 9.47889 7.20673 9.77343 7.34053 10.2019L7.36729 10.309L7.39406 10.4161C7.849 11.4068 8.41099 12.3172 9.21383 13.3347C10.873 15.3697 12.5322 16.896 14.2985 17.9938L14.3788 18.0474C14.5929 18.1545 14.8069 18.2616 14.9943 18.3687C15.0746 18.449 15.1816 18.5026 15.2619 18.5294C15.3689 18.5829 15.4492 18.6097 15.5027 18.6632L15.6901 18.7971H15.7436L15.8239 18.8239C15.9844 18.8774 16.0915 18.8774 16.1718 18.8774C16.4394 18.8774 16.6802 18.7703 16.9211 18.5294L18.9282 16.5211C19.2493 16.1998 19.5437 16.0659 19.9184 16.0659C20.3198 16.0659 20.6944 16.3069 20.9085 16.5211L24.1734 19.7878C24.8157 20.4305 24.8425 21.0999 24.1734 21.7961Z" fill="white"/>
</svg>
